<svg viewBox="0 0 300 200" xmlns="http://www.w3.org/2000/svg">
    <rect width="300" height="200" rx="6" fill="#f8f9fa" />

    <!-- Carousel Background -->
    <rect x="20" y="20" width="260" height="140" rx="8" fill="#f1f5f9" stroke="#e9ecef" stroke-width="2" />

    <!-- Left Navigation Arrow -->
    <circle cx="40" cy="90" r="15" fill="white" stroke="#cbd5e1" stroke-width="1" />
    <path d="M45 80 L35 90 L45 100" fill="none" stroke="#94a3b8" stroke-width="2" stroke-linecap="round" stroke-linejoin="round" />

    <!-- Right Navigation Arrow -->
    <circle cx="260" cy="90" r="15" fill="white" stroke="#cbd5e1" stroke-width="1" />
    <path d="M255 80 L265 90 L255 100" fill="none" stroke="#94a3b8" stroke-width="2" stroke-linecap="round" stroke-linejoin="round" />

    <!-- Author Card (Center) -->
    <rect x="100" y="30" width="100" height="120" rx="6" fill="white" stroke="#e9ecef" stroke-width="1" filter="drop-shadow(0 2px 4px rgba(0,0,0,0.1))" />
    <!-- Avatar -->
    <circle cx="150" cy="65" r="20" fill="#e2e8f0" stroke="#94a3b8" stroke-width="1" />
    <path d="M150 55 Q160 55 160 65 Q160 75 150 75 Q140 75 140 65 Q140 55 150 55" fill="#94a3b8" />
    <circle cx="150" cy="80" r="10" fill="#94a3b8" />
    <!-- Info -->
    <rect x="120" y="100" width="60" height="8" rx="2" fill="#94a3b8" />
    <rect x="130" y="113" width="40" height="5" rx="1" fill="#cbd5e1" />
    <rect x="125" y="123" width="50" height="4" rx="1" fill="#cbd5e1" />
    <!-- Social -->
    <circle cx="140" cy="135" r="3" fill="#3b82f6" />
    <circle cx="150" cy="135" r="3" fill="#1da1f2" />
    <circle cx="160" cy="135" r="3" fill="#0a66c2" />

    <!-- Previous Card (Left, Partially Visible) -->
    <rect x="60" y="40" width="30" height="100" rx="6" fill="white" stroke="#e9ecef" stroke-width="1" filter="drop-shadow(0 1px 2px rgba(0,0,0,0.05))" />

    <!-- Next Card (Right, Partially Visible) -->
    <rect x="210" y="40" width="30" height="100" rx="6" fill="white" stroke="#e9ecef" stroke-width="1" filter="drop-shadow(0 1px 2px rgba(0,0,0,0.05))" />

    <!-- Navigation Dots -->
    <circle cx="135" cy="170" r="4" fill="#cbd5e1" />
    <circle cx="150" cy="170" r="4" fill="#4c6ef5" />
    <circle cx="165" cy="170" r="4" fill="#cbd5e1" />

    <!-- Carousel Label -->
    <text x="150" y="185" font-family="Arial, sans-serif" font-size="12" text-anchor="middle" fill="#495057">Author Carousel</text>
</svg>