<svg viewBox="0 0 300 200" xmlns="http://www.w3.org/2000/svg">
    <rect width="300" height="200" rx="6" fill="#f8f9fa" />

    <!-- Grid Background -->
    <rect x="20" y="20" width="260" height="160" rx="8" fill="white" stroke="#e9ecef" stroke-width="2" />

    <!-- Author Card 1 -->
    <rect x="30" y="30" width="75" height="120" rx="6" fill="white" stroke="#e9ecef" stroke-width="1" filter="drop-shadow(0 1px 2px rgba(0,0,0,0.05))" />
    <!-- Avatar -->
    <circle cx="67.5" cy="60" r="15" fill="#e2e8f0" stroke="#94a3b8" stroke-width="1" />
    <path d="M67.5 52.5 Q72.5 52.5 72.5 57.5 Q72.5 62.5 67.5 62.5 Q62.5 62.5 62.5 57.5 Q62.5 52.5 67.5 52.5" fill="#94a3b8" />
    <circle cx="67.5" cy="67.5" r="7.5" fill="#94a3b8" />
    <!-- Info -->
    <rect x="45" y="85" width="45" height="6" rx="1" fill="#94a3b8" />
    <rect x="50" y="95" width="35" height="4" rx="1" fill="#cbd5e1" />
    <rect x="40" y="105" width="55" height="3" rx="1" fill="#cbd5e1" />
    <rect x="40" y="110" width="55" height="3" rx="1" fill="#cbd5e1" />
    <!-- Social -->
    <circle cx="60" cy="125" r="2.5" fill="#3b82f6" />
    <circle cx="67.5" cy="125" r="2.5" fill="#1da1f2" />
    <circle cx="75" cy="125" r="2.5" fill="#0a66c2" />

    <!-- Author Card 2 -->
    <rect x="112.5" y="30" width="75" height="120" rx="6" fill="white" stroke="#e9ecef" stroke-width="1" filter="drop-shadow(0 1px 2px rgba(0,0,0,0.05))" />
    <!-- Avatar -->
    <circle cx="150" cy="60" r="15" fill="#e2e8f0" stroke="#94a3b8" stroke-width="1" />
    <path d="M150 52.5 Q155 52.5 155 57.5 Q155 62.5 150 62.5 Q145 62.5 145 57.5 Q145 52.5 150 52.5" fill="#94a3b8" />
    <circle cx="150" cy="67.5" r="7.5" fill="#94a3b8" />
    <!-- Info -->
    <rect x="127.5" y="85" width="45" height="6" rx="1" fill="#94a3b8" />
    <rect x="132.5" y="95" width="35" height="4" rx="1" fill="#cbd5e1" />
    <rect x="122.5" y="105" width="55" height="3" rx="1" fill="#cbd5e1" />
    <rect x="122.5" y="110" width="55" height="3" rx="1" fill="#cbd5e1" />
    <!-- Social -->
    <circle cx="142.5" cy="125" r="2.5" fill="#3b82f6" />
    <circle cx="150" cy="125" r="2.5" fill="#1da1f2" />
    <circle cx="157.5" cy="125" r="2.5" fill="#0a66c2" />

    <!-- Author Card 3 -->
    <rect x="195" y="30" width="75" height="120" rx="6" fill="white" stroke="#e9ecef" stroke-width="1" filter="drop-shadow(0 1px 2px rgba(0,0,0,0.05))" />
    <!-- Avatar -->
    <circle cx="232.5" cy="60" r="15" fill="#e2e8f0" stroke="#94a3b8" stroke-width="1" />
    <path d="M232.5 52.5 Q237.5 52.5 237.5 57.5 Q237.5 62.5 232.5 62.5 Q227.5 62.5 227.5 57.5 Q227.5 52.5 232.5 52.5" fill="#94a3b8" />
    <circle cx="232.5" cy="67.5" r="7.5" fill="#94a3b8" />
    <!-- Info -->
    <rect x="210" y="85" width="45" height="6" rx="1" fill="#94a3b8" />
    <rect x="215" y="95" width="35" height="4" rx="1" fill="#cbd5e1" />
    <rect x="205" y="105" width="55" height="3" rx="1" fill="#cbd5e1" />
    <rect x="205" y="110" width="55" height="3" rx="1" fill="#cbd5e1" />
    <!-- Social -->
    <circle cx="225" cy="125" r="2.5" fill="#3b82f6" />
    <circle cx="232.5" cy="125" r="2.5" fill="#1da1f2" />
    <circle cx="240" cy="125" r="2.5" fill="#0a66c2" />

    <!-- Grid Label -->
    <text x="150" y="170" font-family="Arial, sans-serif" font-size="12" text-anchor="middle" fill="#495057">Three-column Grid</text>
    <text x="150" y="185" font-family="Arial, sans-serif" font-size="12" text-anchor="middle" fill="#495057">Author Grid</text>
</svg>